<?xml version="1.0" encoding="utf-8"?>
<!-- Generator: Adobe Illustrator 16.0.4, SVG Export Plug-In . SVG Version: 6.00 Build 0)  -->
<!DOCTYPE svg PUBLIC "-//W3C//DTD SVG 1.1//EN" "http://www.w3.org/Graphics/SVG/1.1/DTD/svg11.dtd">
<svg version="1.1" id="Ebene_1" xmlns="http://www.w3.org/2000/svg" xmlns:xlink="http://www.w3.org/1999/xlink" x="0px" y="0px"
	 width="640.006px" height="427px" viewBox="0 0 640.006 427" enable-background="new 0 0 640.006 427" xml:space="preserve">
<rect fill="#FFFFFF" width="640" height="427"/>
<path fill="#B7037A" d="M149.001,242.179h-21.558v-55.414H148.3c9.652,0,16.343,5.526,16.343,14.785
	c0,5.842-3.502,10.432-8.17,12.145c5.293,1.944,9.028,6.536,9.028,13.153C165.502,236.889,158.808,242.179,149.001,242.179
	 M147.834,192.058h-14.477v19.223h14.477c6.151,0,10.898-3.034,10.898-9.653C158.732,195.013,153.985,192.058,147.834,192.058
	 M148.455,216.576h-15.098v20.313h15.098c6.852,0,11.132-3.972,11.132-10.198C159.586,220.467,155.307,216.576,148.455,216.576"/>
<rect x="177.489" y="186.765" fill="#B7037A" width="5.912" height="55.415"/>
<polygon fill="#B7037A" points="215.547,192.058 215.547,242.179 209.632,242.179 209.632,192.058 193.599,192.058 193.599,186.765 
	231.581,186.765 231.581,192.058 "/>
<polygon fill="#043989" points="282.378,242.179 282.378,200.074 267.202,233.464 262.142,233.464 246.732,200.074 246.732,242.179 
	240.818,242.179 240.818,186.765 246.732,186.765 264.792,226.069 282.378,186.765 288.292,186.765 288.292,242.179 "/>
<path fill="#043989" d="M337.093,242.179l-4.438-12.53h-24.204l-4.434,12.53h-6.306l20.393-55.414h4.977l20.316,55.414H337.093
	L337.093,242.179z M320.674,195.25l-10.431,29.262h20.701L320.674,195.25z"/>
<path fill="#043989" d="M384.726,242.179l-12.612-24.595h-13.309v24.595h-5.911v-55.414h21.245c9.652,0,16.425,5.836,16.425,15.41
	c0,8.094-4.905,13.387-12.065,14.867l13.149,25.138H384.726z M373.593,192.058h-14.788v20.312h14.788
	c6.463,0,11.052-3.348,11.052-10.117C384.646,195.481,380.057,192.058,373.593,192.058"/>
<path fill="#043989" d="M420.448,242.646c-5.449,0-10.428-2.025-14.168-5.758c-5.215-5.217-5.215-10.664-5.215-22.418
	c0-11.75,0-17.202,5.215-22.413c3.741-3.737,8.718-5.763,14.168-5.763c9.963,0,17.353,6.072,19.227,16.504H433.6
	c-1.479-6.772-6.227-11.211-13.151-11.211c-3.654,0-7.159,1.404-9.573,3.893c-3.505,3.58-3.892,7.397-3.892,18.99
	c0,11.598,0.387,15.408,3.892,18.992c2.414,2.488,5.918,3.889,9.573,3.889c6.925,0,11.829-4.436,13.31-11.204h5.917
	C437.881,236.577,430.331,242.646,420.448,242.646"/>
<polygon fill="#043989" points="485.592,242.179 468.698,212.679 457.027,226.691 457.027,242.179 451.11,242.179 451.11,186.765 
	457.027,186.765 457.027,218.597 482.862,186.765 490.102,186.765 472.671,208.171 492.594,242.179 "/>
<path fill="#043989" d="M504.963,206.416c-5.306,0-9.599-4.292-9.599-9.594c0-5.306,4.293-9.599,9.599-9.599
	c5.299,0,9.598,4.292,9.598,9.599C514.561,202.123,510.262,206.416,504.963,206.416 M504.963,188.624
	c-4.456,0-8.064,3.688-8.064,8.198c0,4.507,3.608,8.191,8.064,8.191s8.087-3.683,8.087-8.191
	C513.052,192.312,509.42,188.624,504.963,188.624 M507.292,202.068l-2.407-4.295h-1.595v4.295h-1.455v-10.525h3.577
	c1.831,0,3.317,1.38,3.317,3.156c0,1.537-0.959,2.492-2.257,2.89l2.518,4.481L507.292,202.068L507.292,202.068z M505.255,192.841
	h-1.965v3.689h1.965c1.17,0,1.987-0.77,1.987-1.832C507.242,193.638,506.425,192.841,505.255,192.841"/>
</svg>
