<svg id="Ebene_1" data-name="Ebene 1" xmlns="http://www.w3.org/2000/svg" viewBox="0 0 170 80"><defs><style>.cls-1{fill:#c8d22c;}.cls-2{fill:#88b917;}.cls-3{fill:#fff;}</style></defs><title>Zeichenfläche 1</title><path class="cls-1" d="M168.2,8.1h-6.4V9.8h6.4a.1.1,0,0,1,.1.1V25.8c0,.1,0,.1-.1.1H152.3c-.1,0-.1,0-.1-.1V9.9c0-.1,0-.1.1-.1h6.4V8.1h-6.4a1.79,1.79,0,0,0-1.8,1.8V25.8a1.79,1.79,0,0,0,1.8,1.8h15.9a1.79,1.79,0,0,0,1.8-1.8V9.9a1.79,1.79,0,0,0-1.8-1.8"/><polyline class="cls-2" points="142.2 -0.3 142.2 18.6 149.8 18.6 149.8 17 143.9 17 143.9 1.4 159.4 1.4 159.4 17 153 17 153 18.6 161.1 18.6 161.1 -0.3 142.2 -0.3"/><path class="cls-3" d="M50,52.4l-7.8-6.1,7.6-6.1c.7-.6,1.8-1.3,1.8-1.7,0-.2-.1-.3-.4-.4H48.1c-.3,0-.2,0-.5.2L40,44.5l-7.8-6.2a1.42,1.42,0,0,0-.6-.2H28.4c-.2,0-.2.1-.3.4s1.1,1.1,1.8,1.7l7.8,6.1-7.9,6.1c-.5.3-1.9,1.5-1.8,1.7s0,.4.2.4h2.2c1.6,0,1.4-.1,1.7-.2L40,48.1l7.8,6.2a.73.73,0,0,0,.6.2h3.2c.2,0,.2,0,.2-.4.1-.2-1.3-1.4-1.8-1.7M22.5,45.1H6.4V43c0-1,.9-1.7,2.5-2a39.53,39.53,0,0,1,6-.3c4.9,0,7.5.5,7.6,2.1Zm.6-6.1a10.18,10.18,0,0,0-4.6-.9H11.7a12.29,12.29,0,0,0-5.5,1,4.44,4.44,0,0,0-3,4.1v6.2A4.51,4.51,0,0,0,5.1,53a8.33,8.33,0,0,0,4.3,1.4c.4,0,1,.1,1.7.1H22.9c.6,0,.6.1,1.1-1.2a2.17,2.17,0,0,0,.2-1c0-.4-.2-.4-1.3-.4s-11,0-11.8-.1-1.4-.1-1.8-.2c-1.9-.5-3-1.6-2.9-3.3v-.4H24.5c.6,0,.9-.2,1-1.3V42.5c.1-1.5-.7-2.6-2.4-3.5m103.3,6.1H110.3V43c0-1,.9-1.7,2.5-2a39.53,39.53,0,0,1,6-.3c4.9,0,7.5.5,7.6,2.1ZM127,39a10.18,10.18,0,0,0-4.6-.9h-6.8a12.29,12.29,0,0,0-5.5,1,4.44,4.44,0,0,0-3,4.1v6.2A4.51,4.51,0,0,0,109,53a8.33,8.33,0,0,0,4.3,1.4c.4,0,1,.1,1.7.1h11.8c.6,0,.6.1,1.1-1.2a8.14,8.14,0,0,0,.2-.9c0-.4-.2-.4-1.3-.4s-11,0-11.8-.1-1.4-.1-1.8-.2c-1.9-.5-3-1.6-2.9-3.3V48h18.1c.6,0,.9-.2.9-1.3V42.6c.1-1.6-.6-2.7-2.3-3.6m16.3-.7h-6.9V34.7c-.1-1.2.1-1-.6-1.1a14.23,14.23,0,0,0-1.5-.1c-1.4.1-1-.3-1.1,1.1V53.5c0,.8,0,.8.2.8h1.9a1.09,1.09,0,0,0,1-1.1V40.9h7a.22.22,0,0,0,.2-.2V38.5c-.1-.2-.2-.2-.2-.2M76.6,51.9H63c-3.3,0-5.2-.7-5.2-2.4V42.9c0-1.5,1.7-2.1,4.6-2.1H76.6c.6,0,.9,0,.9-.1s.1-.4.1-1.2c-.1-1.6.3-1.2-1.2-1.3H62.1c-5.1,0-7.5,1.6-7.5,4.9v6.6a4.08,4.08,0,0,0,2.8,4.1,14.53,14.53,0,0,0,5.5.7H76.5c1.5-.1,1.1.2,1.2-1.1h0c0-.8,0-1.2-.1-1.3s-.3-.3-1-.2m23.8-6.8H84.2V43c0-1,.9-1.7,2.5-2a39.53,39.53,0,0,1,6-.3c4.9,0,7.5.5,7.6,2.1v2.3ZM101,39a10.18,10.18,0,0,0-4.6-.9H89.6a12.29,12.29,0,0,0-5.5,1c-2,.9-3,2.2-3,4.1v6.2A4.51,4.51,0,0,0,83,53a8.33,8.33,0,0,0,4.3,1.4c.4,0,1,.1,1.7.1h11.8c.6,0,.6.1,1.1-1.2a5.76,5.76,0,0,0,.2-1c0-.4-.2-.4-1.3-.4s-11,0-11.8-.1-1.4-.1-1.8-.2c-1.9-.5-3-1.6-2.9-3.3v-.4h18.1c.6,0,.9-.2,1-1.3V42.5c0-1.5-.8-2.6-2.4-3.5"/><path class="cls-3" d="M5.6,74.2H5a2.59,2.59,0,0,1-1.4-.4,1.7,1.7,0,0,1-.6-.6c-.1,0,0-.1,0-.2l.4-.2h.2a1.61,1.61,0,0,0,1.4.8h.6a1.63,1.63,0,0,0,1.7-1.7c0-1.2-1.1-1.7-2-2.1-1.2-.5-2.3-1-2.3-2.5A2.23,2.23,0,0,1,5.4,65h.2a2,2,0,0,1,1.4.4,1.7,1.7,0,0,1,.6.6c.1.1,0,.2-.1.2l-.4.2H6.9a1.9,1.9,0,0,0-1.5-.8h0a1.55,1.55,0,0,0-1.6,1.7c0,1.1,1,1.5,1.8,1.9,1.3.6,2.5,1.1,2.5,2.8A2.24,2.24,0,0,1,5.6,74.2Z"/><path class="cls-3" d="M17,74.1H12.5c-.1,0-.1,0-.1-.1V65.4c0-.1,0-.1.1-.1H17c.1,0,.1,0,.1.1v.3c0,.1,0,.1-.1.1H13.2c-.1,0-.1,0-.1.1v3.3c0,.1,0,.1.1.1h3.1c.1,0,.1,0,.1.1v.3c0,.1,0,.1-.1.1H13.2c-.1,0-.1,0-.1.1v3.4c0,.1,0,.1.1.1H17c.1,0,.1,0,.1.1v.3C17.1,74,17.1,74.1,17,74.1Z"/><path class="cls-3" d="M25.4,73.7a2.54,2.54,0,0,1-1.6.5h-.5a2.18,2.18,0,0,1-2.4-2.3V67.2a2.23,2.23,0,0,1,2.4-2.3h.5a2.46,2.46,0,0,1,1.5.5,1.21,1.21,0,0,1,.5.5c.1.1,0,.2-.1.2l-.4.2h-.2a1.9,1.9,0,0,0-1.5-.8h-.5a1.63,1.63,0,0,0-1.7,1.7v4.7a1.69,1.69,0,0,0,1.7,1.7h.5a1.9,1.9,0,0,0,1.5-.8c0-.1.1-.1.2,0l.4.2c.1,0,.1.1.1.2A1,1,0,0,1,25.4,73.7Z"/><path class="cls-3" d="M32.7,74.2h-.5a2.23,2.23,0,0,1-2.4-2.3V65.3c0-.1,0-.1.1-.1h.4c.1,0,.1,0,.1.1v6.6a1.58,1.58,0,0,0,1.7,1.7h.5a1.63,1.63,0,0,0,1.7-1.7V65.3c0-.1,0-.1.1-.1H35c.1,0,.1,0,.1.1v6.6A2.18,2.18,0,0,1,32.7,74.2Z"/><path class="cls-3" d="M43.6,69.6a.1.1,0,0,0-.1.1l1.4,4.2c0,.1,0,.2-.1.2h-.5c-.1,0-.1,0-.1-.1l-1.4-4.1a.1.1,0,0,0-.1-.1H40.6c-.1,0-.1,0-.1.1v4c0,.1,0,.1-.1.1H40c-.1,0-.1,0-.1-.1V65.3c0-.1,0-.1.1-.1h2.7a2.18,2.18,0,0,1,2.4,2.3v.2A2.11,2.11,0,0,1,43.6,69.6Zm.7-2.2a1.63,1.63,0,0,0-1.7-1.7h-2c-.1,0-.1,0-.1.1v3.3c0,.1,0,.1.1.1h2a1.69,1.69,0,0,0,1.7-1.7Z"/><path class="cls-3" d="M54,74.1H49.5c-.1,0-.1,0-.1-.1V65.4c0-.1,0-.1.1-.1H54c.1,0,.1,0,.1.1v.3c0,.1,0,.1-.1.1H50.2c-.1,0-.1,0-.1.1v3.3c0,.1,0,.1.1.1h3.1c.1,0,.1,0,.1.1v.3c0,.1,0,.1-.1.1H50.2c-.1,0-.1,0-.1.1v3.4c0,.1,0,.1.1.1H54c.1,0,.1,0,.1.1v.3C54.1,74,54.1,74.1,54,74.1Z"/><path class="cls-3" d="M65.1,74.2h-.6a2.59,2.59,0,0,1-1.4-.4,1.7,1.7,0,0,1-.6-.6c-.1-.1,0-.2.1-.2l.4-.2h.2a1.9,1.9,0,0,0,1.5.8h.6A1.63,1.63,0,0,0,67,71.9c0-1.2-1.1-1.7-2-2.1-1.2-.6-2.3-1.1-2.3-2.6a2.29,2.29,0,0,1,2.4-2.3h.2a2,2,0,0,1,1.4.4,1.7,1.7,0,0,1,.6.6c.1.1,0,.2-.1.2l-.4.2h-.2a1.9,1.9,0,0,0-1.5-.8h-.2a1.55,1.55,0,0,0-1.6,1.7c0,1.1,1,1.5,1.8,1.9,1.3.6,2.5,1.1,2.5,2.8A2.26,2.26,0,0,1,65.1,74.2Z"/><path class="cls-3" d="M74.5,74.2H74a2.18,2.18,0,0,1-2.4-2.3V67.2A2.23,2.23,0,0,1,74,64.9h.5a2.18,2.18,0,0,1,2.4,2.3v4.7A2.23,2.23,0,0,1,74.5,74.2Zm1.7-6.9a1.69,1.69,0,0,0-1.7-1.7H74a1.63,1.63,0,0,0-1.7,1.7V72A1.69,1.69,0,0,0,74,73.7h.5A1.75,1.75,0,0,0,76.2,72Z"/><path class="cls-3" d="M86.1,74.1H81.6c-.1,0-.1,0-.1-.1V65.4c0-.1,0-.1.1-.1H82c.1,0,.1,0,.1.1v8c0,.1,0,.1.1.1H86c.1,0,.1,0,.1.1v.3C86.3,74,86.2,74.1,86.1,74.1Z"/><path class="cls-3" d="M92,74.2h-.5a2.23,2.23,0,0,1-2.4-2.3V65.3c0-.1,0-.1.1-.1h.4c.1,0,.1,0,.1.1v6.6a1.58,1.58,0,0,0,1.7,1.7H92a1.63,1.63,0,0,0,1.7-1.7V65.3c0-.1,0-.1.1-.1h.4c.1,0,.1,0,.1.1v6.6C94.5,73.2,93.5,74.2,92,74.2Z"/><path class="cls-3" d="M102.8,65.7H101c-.1,0-.1,0-.1.1v8.1c0,.1,0,.1-.1.1h-.4c-.1,0-.1,0-.1-.1V65.8c0-.1,0-.1-.1-.1H98.4c-.1,0-.1,0-.1-.1v-.3c0-.1,0-.1.1-.1h4.5c.1,0,.1,0,.1.1v.3C103,65.7,102.9,65.7,102.8,65.7Z"/><path class="cls-3" d="M107.3,74.1h-.4c-.1,0-.1,0-.1-.1V65.4c0-.1,0-.1.1-.1h.4c.1,0,.1,0,.1.1V74A.1.1,0,0,1,107.3,74.1Z"/><path class="cls-3" d="M114.8,74.2h-.5a2.18,2.18,0,0,1-2.4-2.3V67.2a2.23,2.23,0,0,1,2.4-2.3h.5a2.18,2.18,0,0,1,2.4,2.3v4.7A2.18,2.18,0,0,1,114.8,74.2Zm1.7-6.9a1.69,1.69,0,0,0-1.7-1.7h-.5a1.63,1.63,0,0,0-1.7,1.7V72a1.69,1.69,0,0,0,1.7,1.7h.5a1.75,1.75,0,0,0,1.7-1.7Z"/><path class="cls-3" d="M127.1,74.1h-.5c-.1,0-.1,0-.1-.1l-3.8-6.8a6,6,0,0,1-.3-.7h0a12.25,12.25,0,0,1,.1,1.8V74c0,.1,0,.1-.1.1H122c-.1,0-.1,0-.1-.1V65.4c0-.1,0-.1.1-.1h.4c.1,0,.1,0,.1.1l3.8,6.9a2.71,2.71,0,0,1,.3.8h0a17.83,17.83,0,0,1-.1-2V65.5c0-.1,0-.1.1-.1h.4c.1,0,.1,0,.1.1v8.6C127.3,74,127.2,74.1,127.1,74.1Z"/><path class="cls-3" d="M133.8,74.2h-.6a2.59,2.59,0,0,1-1.4-.4,1.7,1.7,0,0,1-.6-.6c-.1-.1,0-.2.1-.2l.4-.2h.2a1.9,1.9,0,0,0,1.5.8h.6a1.63,1.63,0,0,0,1.7-1.7c0-1.2-1.1-1.7-2-2.1-1.2-.6-2.3-1.1-2.3-2.6a2.29,2.29,0,0,1,2.4-2.3h.2a2,2,0,0,1,1.4.4,1.7,1.7,0,0,1,.6.6c.1.1,0,.2-.1.2l-.4.2h-.2a1.9,1.9,0,0,0-1.5-.8h-.2a1.55,1.55,0,0,0-1.6,1.7c0,1.1,1,1.5,1.8,1.9,1.3.6,2.5,1.1,2.5,2.8A2.32,2.32,0,0,1,133.8,74.2Z"/></svg>